<?xml version="1.0" encoding="UTF-8" standalone="no"?>
<!-- Created with Inkscape (http://www.inkscape.org/) -->

<svg
   xmlns:dc="http://purl.org/dc/elements/1.1/"
   xmlns:cc="http://creativecommons.org/ns#"
   xmlns:rdf="http://www.w3.org/1999/02/22-rdf-syntax-ns#"
   xmlns:svg="http://www.w3.org/2000/svg"
   xmlns="http://www.w3.org/2000/svg"
   xmlns:sodipodi="http://sodipodi.sourceforge.net/DTD/sodipodi-0.dtd"
   xmlns:inkscape="http://www.inkscape.org/namespaces/inkscape"
   width="18.980883mm"
   height="17.896965mm"
   viewBox="0 0 18.980883 17.896965"
   version="1.1"
   id="svg62977"
   inkscape:version="0.92.5 (2060ec1f9f, 2020-04-08)"
   sodipodi:docname="opony-1.svg">
  <defs
     id="defs62971" />
  <sodipodi:namedview
     id="base"
     pagecolor="#ffffff"
     bordercolor="#666666"
     borderopacity="1.0"
     inkscape:pageopacity="0.0"
     inkscape:pageshadow="2"
     inkscape:zoom="0.35"
     inkscape:cx="-24.115131"
     inkscape:cy="79.535486"
     inkscape:document-units="mm"
     inkscape:current-layer="layer1"
     showgrid="false"
     inkscape:window-width="1366"
     inkscape:window-height="709"
     inkscape:window-x="0"
     inkscape:window-y="27"
     inkscape:window-maximized="1" />
  <metadata
     id="metadata62974">
    <rdf:RDF>
      <cc:Work
         rdf:about="">
        <dc:format>image/svg+xml</dc:format>
        <dc:type
           rdf:resource="http://purl.org/dc/dcmitype/StillImage" />
        <dc:title></dc:title>
      </cc:Work>
    </rdf:RDF>
  </metadata>
  <g
     inkscape:label="Layer 1"
     inkscape:groupmode="layer"
     id="layer1"
     transform="translate(-112.2138,-151.98013)">
    <path
       style="fill:#f04523;fill-opacity:1;fill-rule:nonzero;stroke:none;stroke-width:0.59237456"
       d="m 125.95911,168.20034 c 0.1666,-0.3309 0.21288,-0.41652 0.32858,-0.65023 -0.0995,0.0324 -0.20131,0.0625 -0.30313,0.0925 -0.34015,0.0996 -0.69419,0.18743 -1.05285,0.26148 -0.16892,0.29388 -0.30776,0.53453 -0.54147,0.92328 0.47899,-0.0809 0.95104,-0.18511 1.40226,-0.31008 z m -12.09278,-1.55266 c 0.0972,-0.17356 0.1805,-0.31471 0.31933,-0.55074 -0.2985,-0.22444 -0.56924,-0.46046 -0.80526,-0.70807 -0.081,0.16892 -0.14346,0.30082 -0.24065,0.51602 0.20826,0.25685 0.45122,0.50676 0.72658,0.74279 m -0.74741,-6.25002 c 0.10413,0.49056 0.14809,0.69419 0.28231,1.26111 0.22445,0.23834 0.4813,0.46974 0.76823,0.68724 -0.0717,-0.22908 -0.20594,-0.6618 -0.29618,-0.97417 -0.007,-0.0277 -0.0161,-0.0625 -0.0209,-0.0972 -0.0139,-0.0693 -0.0278,-0.13888 -0.0579,-0.18744 -0.25223,-0.21982 -0.4813,-0.45123 -0.67568,-0.68955 m 1.86737,1.52721 c -0.33552,-0.19205 -0.64791,-0.40263 -0.93021,-0.62246 0.15503,0.50445 0.21288,0.68726 0.39568,1.24723 0.23834,0.16657 0.4975,0.32396 0.77055,0.47205 0.0764,0.0416 0.15504,0.0833 0.23603,0.12493 -0.14579,-0.36098 -0.16892,-0.41882 -0.2823,-0.70808 -0.0185,-0.0532 -0.037,-0.11334 -0.0532,-0.17584 -0.0347,-0.12493 -0.0694,-0.25455 -0.13653,-0.33785 m 0.79832,1.37912 c 0.3818,0.17586 0.78674,0.33783 1.2102,0.47668 -0.19206,-0.39106 -0.34016,-0.69418 -0.43734,-0.90707 -0.0139,-0.0277 -0.0255,-0.0601 -0.037,-0.0925 -0.0209,-0.0648 -0.0439,-0.12963 -0.081,-0.16657 -0.40263,-0.15499 -0.78675,-0.3309 -1.14541,-0.51833 0.18975,0.48592 0.2661,0.67105 0.49056,1.20788 m 12.04186,3.63756 c -0.37023,0.18048 -0.76823,0.34478 -1.18012,0.49055 -0.15503,0.31471 -0.27767,0.56924 -0.48592,0.97881 0.43039,-0.13417 0.8469,-0.28692 1.23796,-0.45585 0.14579,-0.33553 0.25454,-0.58776 0.42808,-1.01351 m -12.6458,0.37254 c 0.17355,-0.26148 0.18512,-0.27535 0.29156,-0.43039 -0.0949,-0.0485 -0.18974,-0.0972 -0.2823,-0.1481 -0.26379,-0.1434 -0.51833,-0.29851 -0.75435,-0.46048 -0.1157,0.18974 -0.199,0.32626 -0.33784,0.56229 0.29387,0.22677 0.61783,0.44427 0.96955,0.64329 z m 13.70329,-0.41882 c 0.14115,-0.42116 0.16198,-0.47899 0.23834,-0.71733 -0.0625,0.044 -0.12495,0.088 -0.18974,0.13182 -0.24528,0.16422 -0.50676,0.32163 -0.78444,0.46741 -0.14115,0.35636 -0.23833,0.59932 -0.41651,1.02509 0.37024,-0.17586 0.72196,-0.37024 1.04128,-0.5785 z m -15.86221,-3.68615 c -0.0161,-0.0208 -0.0324,-0.0416 -0.0486,-0.0625 0.0347,0.17817 0.0717,0.37949 0.10413,0.53916 0.20825,1.02277 0.30775,1.43234 0.32395,1.49018 0.22446,0.23834 0.48362,0.47205 0.77055,0.68957 -0.24066,-0.78444 -0.3633,-1.21483 -0.57387,-2.01546 0,-0.002 -0.002,-0.005 -0.002,-0.007 -0.21522,-0.2036 -0.40728,-0.41649 -0.57388,-0.63401 m 0.35866,-1.33978 c -0.0949,0.20594 -0.18049,0.39338 -0.30544,0.68956 -0.037,0.0925 -0.0856,0.21288 -0.12265,0.31007 0.037,0.0532 0.0787,0.10881 0.11801,0.16204 0.15966,0.20593 0.34016,0.40957 0.54379,0.60163 0.19436,-0.37491 0.317,-0.60166 0.57386,-1.05289 -0.29851,-0.22446 -0.57156,-0.4628 -0.80758,-0.71039 m 5.74788,2.42966 c 0.49288,0.0809 0.99964,0.13887 1.51102,0.17124 -0.27999,-0.4142 -0.3818,-0.56924 -0.68262,-1.02972 -0.4975,-0.0556 -0.99268,-0.13181 -1.46705,-0.23139 0.24991,0.43733 0.34941,0.60857 0.63865,1.08987 m -2.34404,-1.55961 c 0.22677,0.46974 0.31238,0.6456 0.57155,1.15698 0.33784,0.0996 0.68725,0.18974 1.04128,0.26611 0.11338,0.0232 0.22677,0.0463 0.34016,0.0672 -0.18512,-0.31469 -0.22446,-0.37949 -0.37255,-0.64329 -0.0787,-0.13887 -0.18049,-0.32163 -0.25917,-0.46046 -0.45353,-0.10881 -0.89782,-0.23835 -1.32127,-0.38645 m 13.36545,2.28851 c -0.16895,-0.36564 -0.27539,-0.58547 -0.50216,-1.02512 -0.21982,0.18975 -0.45816,0.37254 -0.71501,0.5461 -0.0625,0.044 -0.12727,0.0856 -0.19437,0.12728 0.0648,0.10411 0.14347,0.23371 0.20363,0.3332 l 0.005,0.007 c 0.1319,0.22215 0.25685,0.4304 0.43271,0.74511 0.29156,-0.23141 0.54841,-0.479 0.77055,-0.73353 m -0.52065,-1.23567 c 0,0 0,-0.002 0,-0.005 0.21752,-0.81451 0.32627,-1.25185 0.49982,-2.01776 -0.21288,0.23601 -0.45816,0.4651 -0.73121,0.6803 -0.12958,0.42807 -0.24297,0.80063 -0.45354,1.43929 -0.0555,0.16657 -0.12726,0.38179 -0.18743,0.55997 0.0463,-0.0301 0.0949,-0.0625 0.14116,-0.0925 0.26378,-0.17818 0.50906,-0.36792 0.7312,-0.56461 m -6.58322,0.65949 c 0.50907,-0.0416 1.01583,-0.10881 1.50639,-0.19669 l -0.65254,-0.87004 c -0.50444,0.0693 -1.02277,0.11569 -1.54341,0.13416 0.22908,0.31238 0.45816,0.62246 0.68956,0.93253 m 6.09729,1.49018 c -0.11338,-0.18974 -0.1481,-0.24759 -0.25454,-0.42807 -0.13883,-0.2314 -0.2175,-0.36099 -0.41651,-0.67568 -0.34709,0.20362 -0.72658,0.39338 -1.12459,0.56229 0.35635,0.52296 0.51602,0.7613 0.78676,1.17318 0.26841,-0.1434 0.52526,-0.2985 0.76361,-0.45817 0.0833,-0.0556 0.16428,-0.11335 0.24527,-0.17355 m -2.10802,-0.4142 c -0.33552,0.13182 -0.68956,0.24992 -1.05054,0.35636 -0.0856,0.0255 -0.17123,0.0485 -0.25685,0.0717 l 0.28693,0.40031 c 0.18744,0.2638 0.36793,0.51603 0.62015,0.87005 0.42345,-0.15045 0.83071,-0.31931 1.21019,-0.50444 -0.25914,-0.3911 -0.42343,-0.63406 -0.80986,-1.19403 m 3.11227,-4.01241 c -0.12264,-0.25686 -0.16891,-0.35172 -0.30775,-0.62477 -0.25454,0.24064 -0.54147,0.47205 -0.85848,0.68955 0.17586,0.28694 0.23602,0.38413 0.398,0.66179 0.28925,-0.22908 0.5461,-0.47436 0.76823,-0.72657 m -5.86357,1.81414 0.64096,0.85154 c 0.35404,-0.074 0.70576,-0.15969 1.04128,-0.25686 0.11338,-0.0348 0.22446,-0.0672 0.3309,-0.10176 -0.11569,-0.15734 -0.23139,-0.31469 -0.34709,-0.47205 l -0.24065,-0.32626 c -0.45817,0.12258 -0.93716,0.22445 -1.4254,0.30544 m 2.35098,0.37949 c 0.42346,-0.1481 0.8284,-0.31932 1.20789,-0.50444 -0.19437,-0.2823 -0.27999,-0.40494 -0.51138,-0.73353 -0.40264,0.16893 -0.8284,0.32165 -1.27037,0.45353 0.2985,0.40495 0.31007,0.42347 0.57386,0.78444 m 1.49946,-0.65486 c 0.26842,-0.1434 0.52527,-0.29849 0.76361,-0.45816 0.0833,-0.0556 0.16429,-0.11116 0.24065,-0.16891 -0.14115,-0.23602 -0.14578,-0.24066 -0.24991,-0.40958 l -0.0185,-0.0301 c -0.0463,-0.074 -0.10181,-0.16204 -0.14809,-0.23601 -0.33321,0.21056 -0.69881,0.40493 -1.08293,0.58311 0.22909,0.3309 0.29619,0.42577 0.49519,0.71964 m -15.85063,0.68958 c 0.007,0.27303 0.0509,0.5484 0.1319,0.81913 0.0278,-0.12493 0.0579,-0.23832 0.10644,-0.41652 -0.0995,-0.22443 -0.17586,-0.45121 -0.22676,-0.68261 -0.005,0.0809 -0.009,0.16657 -0.0116,0.28 m 2.89709,0.0741 0.007,-0.0117 c 0.0995,-0.155 0.17123,-0.26381 0.28924,-0.43967 -0.0949,-0.0485 -0.19206,-0.0972 -0.28693,-0.1481 -0.2661,-0.14575 -0.52064,-0.30081 -0.75435,-0.4628 -0.25916,0.43966 -0.38412,0.6618 -0.60626,1.07368 0.27305,0.23603 0.58081,0.4628 0.91633,0.67337 0.14347,-0.23139 0.22677,-0.36329 0.43502,-0.68494 m 15.6424,-3.32748 c -0.0602,-0.199 -0.0671,-0.22214 -0.1157,-0.37254 -0.0209,-0.0578 -0.044,-0.12963 -0.0671,-0.19438 -0.16429,0.26148 -0.3656,0.51833 -0.597,0.7636 0.12727,0.26148 0.17123,0.35406 0.28693,0.60627 0.14579,-0.18743 0.27305,-0.3818 0.37949,-0.57849 0.0393,-0.0717 0.0787,-0.1481 0.1134,-0.22446 m -9.11471,4.01474 c 0.1805,0 0.3633,-0.002 0.54841,-0.008 0.12727,-0.002 0.25686,-0.008 0.38412,-0.0168 -0.13651,-0.18513 -0.27305,-0.37024 -0.40957,-0.55536 -0.0856,-0.11804 -0.20131,-0.27305 -0.28925,-0.39338 -0.0764,0.002 -0.15503,0.002 -0.23371,0.002 -0.45122,0 -0.90244,-0.0185 -1.34672,-0.0554 0.27999,0.41884 0.37718,0.56231 0.68956,1.01583 0.21983,0.007 0.43965,0.0117 0.65716,0.0117 m -3.34136,0.45581 0.37949,-0.52294 c -0.12265,-0.0232 -0.24297,-0.0485 -0.36098,-0.0741 -0.35404,-0.0764 -0.70344,-0.16423 -1.03897,-0.26612 -0.40494,0.56692 -0.59005,0.83072 -0.88393,1.25186 0.41882,0.16204 0.86079,0.30312 1.31433,0.42345 0.19668,-0.27073 0.39337,-0.54146 0.59006,-0.81219 m 12.71522,-6.02789 c -0.0694,0.25221 -0.17123,0.50212 -0.2985,0.7451 0.0741,0.23371 0.10183,0.32395 0.15504,0.5299 0.0995,-0.27305 0.16197,-0.55304 0.18511,-0.83302 -0.0139,-0.1967 -0.0209,-0.28462 -0.0416,-0.44198 m -18.05586,6.60872 c 0.0833,-0.18975 0.0972,-0.22446 0.16198,-0.36561 -0.0579,-0.0672 -0.11338,-0.13651 -0.16661,-0.20593 -0.14115,-0.18281 -0.26611,-0.37256 -0.37024,-0.56462 -0.0439,0.1434 -0.081,0.26611 -0.1319,0.45816 0.11108,0.27769 0.26148,0.55073 0.44891,0.81221 z m 11.52817,2.23066 c -0.34015,-0.46741 -0.68262,-0.93716 -1.02277,-1.40458 -0.41883,0.0462 -0.8446,0.0788 -1.27268,0.0902 -0.0995,0.005 -0.19669,0.007 -0.29619,0.008 0.10181,0.13887 0.22445,0.3124 0.31933,0.44428 0.1828,0.25455 0.40957,0.56924 0.7636,1.05749 0.50908,-0.0416 1.01815,-0.10881 1.50871,-0.1967 m 1.74704,-0.43502 c -0.11569,-0.16419 -0.23369,-0.32623 -0.3517,-0.49052 -0.16661,-0.23141 -0.29619,-0.4142 -0.57618,-0.80063 -0.46974,0.11335 -0.95798,0.20594 -1.45548,0.27303 l 1.00657,1.38144 c 0.35403,-0.0741 0.70345,-0.16204 1.04128,-0.25916 0.11108,-0.0324 0.22446,-0.0672 0.33553,-0.10411 m -7.88368,-1.86968 -0.28462,0.39338 c 0.0879,0.0208 0.17587,0.0416 0.2638,0.0601 0.38875,0.0833 0.79137,0.15281 1.19632,0.20594 0.5646,-0.77286 0.69882,-0.95799 1.05285,-1.45086 -0.51601,-0.0348 -1.0274,-0.0925 -1.5249,-0.17354 -0.46742,0.64097 -0.46974,0.64559 -0.70345,0.96492 m -2.26999,-0.24296 c 0.27073,-0.3957 0.45122,-0.65254 0.86079,-1.23335 -0.43271,-0.14122 -0.84923,-0.30312 -1.23797,-0.48362 -0.15966,0.23834 -0.31238,0.46742 -0.53684,0.81452 -0.0671,0.10176 -0.1504,0.23602 -0.21982,0.34246 0.0694,0.0393 0.13653,0.0787 0.20825,0.1157 0.28925,0.15969 0.60163,0.30776 0.92559,0.44427 m -3.86664,-3.57969 c 0.002,0.42114 0.007,0.8122 0.0324,1.43234 0.0347,0.23834 0.0972,0.47436 0.18512,0.70807 -0.081,-0.69419 -0.12727,-1.15235 -0.18743,-2.00157 -0.002,-0.002 0,-0.005 0,-0.007 -0.0116,-0.044 -0.0209,-0.088 -0.0301,-0.13182 m 18.85417,0.23604 v -0.23834 c -0.007,0.0301 -0.0116,0.0625 -0.0185,0.0925 0.007,0.0509 0.0116,0.0996 0.0185,0.14575 m -18.35897,0.97647 c -0.13422,-0.21287 -0.24297,-0.43271 -0.33091,-0.65484 0.12033,1.27731 0.21983,1.91133 0.22909,1.96918 0.10876,0.20827 0.24297,0.41652 0.39569,0.61783 0.0324,0.0417 0.0648,0.0833 0.0995,0.12493 -0.074,-0.34246 -0.0903,-0.42577 -0.15503,-0.74278 -0.0902,-0.46975 -0.13654,-0.70345 -0.23834,-1.30508 0,-0.002 0,-0.007 0,-0.008 m 17.9309,2.14967 c 0.0532,-0.37254 0.0694,-0.47898 0.0949,-0.66873 -0.0139,0.0232 -0.0255,0.044 -0.037,0.0672 -0.1157,0.21057 -0.25454,0.42114 -0.4142,0.62246 -0.074,0.3471 -0.1342,0.6294 -0.23834,1.07137 0.21057,-0.23604 0.39106,-0.48363 0.53916,-0.73353 z m -18.42609,-4.63951 v 0.50443 c 0,0.19439 0.0185,0.39107 0.0555,0.58543 0.0486,-0.27073 0.0926,-0.47205 0.18742,-0.82608 -0.1018,-0.22446 -0.17817,-0.45353 -0.22907,-0.68494 -0.007,0.1204 -0.0139,0.25455 -0.0139,0.42116 m 0.39338,0.28692 c 0.10876,0.20826 0.24296,0.41651 0.39569,0.61783 0.0324,0.0393 0.0648,0.0809 0.0972,0.1204 -0.0787,-0.35868 -0.0902,-0.41884 -0.15273,-0.71733 -0.009,-0.0556 -0.0185,-0.11805 -0.0278,-0.18513 -0.0185,-0.13181 -0.0347,-0.26841 -0.0787,-0.37022 -0.15504,-0.21982 -0.28462,-0.44661 -0.38875,-0.67569 0.0509,0.44428 0.0787,0.6618 0.15504,1.2102 m -0.36096,-1.09218 c 0.0347,0.23602 0.0972,0.47668 0.18742,0.71271 -0.009,-0.11335 -0.0185,-0.22446 -0.0255,-0.33322 -0.0232,-0.29387 -0.0463,-0.597 -0.10644,-0.89089 -0.0324,-0.10175 -0.0579,-0.20593 -0.081,-0.31005 0.005,0.2337 0.0116,0.45584 0.0255,0.82145 m 9.96855,6.24076 c -0.0949,0.13651 -0.21751,0.31469 -0.31701,0.46048 0.0972,-0.002 0.19437,-0.005 0.29156,-0.007 0.42577,-0.0134 0.85385,-0.0464 1.27036,-0.0925 0.42114,-0.678 0.63866,-1.03898 1.02046,-1.70309 -0.48825,0.088 -0.99269,0.15281 -1.49945,0.19438 -0.21751,0.33322 -0.42577,0.65023 -0.76592,1.14773 m -9.6307,-4.91723 c -0.17355,0.59236 -0.22214,0.87466 -0.22909,0.91864 0.0879,0.27998 0.21289,0.55767 0.37486,0.82608 0.0694,-0.18744 0.11108,-0.30314 0.21983,-0.56692 0.0833,-0.1967 0.10181,-0.24528 0.17355,-0.40495 -0.0579,-0.0672 -0.1157,-0.13887 -0.16892,-0.20825 -0.14115,-0.18281 -0.26611,-0.37256 -0.37023,-0.5646 m 9.39931,8.16133 0.18049,-0.25685 c 0.23603,-0.33783 0.26611,-0.38179 0.40726,-0.58774 -0.12727,0.007 -0.25453,0.0118 -0.37949,0.0168 -0.18281,0.007 -0.36792,0.008 -0.55072,0.008 -0.21752,0 -0.43966,-0.005 -0.65948,-0.0134 -0.19438,0.26379 -0.38875,0.52759 -0.58313,0.78905 0.40726,0.0324 0.8261,0.0462 1.24261,0.0462 0.11569,0 0.22908,0 0.34246,-0.002 m 8.95504,-7.28203 c 0,-0.002 0,-0.005 0,-0.007 0.0532,-0.71732 0.081,-1.15698 0.10182,-1.75398 -0.0347,0.15264 -0.0833,0.30544 -0.14346,0.45585 -0.0509,0.46048 -0.0972,0.85848 -0.19669,1.53184 -0.0231,0.15499 -0.0532,0.3494 -0.081,0.52296 0.009,-0.0134 0.0161,-0.0255 0.0231,-0.0393 0.12495,-0.23141 0.22677,-0.47205 0.29619,-0.71039 m 0.11801,1.12691 c -0.0209,-0.3124 -0.0417,-0.50678 -0.0972,-0.84229 -0.0694,0.20132 -0.15504,0.40263 -0.26148,0.59699 -0.0301,0.0556 -0.0648,0.11335 -0.0995,0.17125 0.0324,0.0949 0.0717,0.21288 0.10181,0.30544 0.0602,0.18974 0.11108,0.35634 0.17354,0.59931 0.0972,-0.27305 0.15966,-0.55072 0.18281,-0.8307 m -13.77734,4.72511 -0.0139,0.0208 c -0.21289,0.28924 -0.28462,0.38643 -0.47205,0.64328 0.43039,0.1481 0.88393,0.27766 1.34904,0.38412 l 0.15735,-0.21058 c 0.16892,-0.22444 0.24759,-0.3332 0.37487,-0.49981 -0.12265,-0.0232 -0.24297,-0.0462 -0.35635,-0.0717 -0.35404,-0.0764 -0.70345,-0.16422 -1.03897,-0.26611 m 1.23334,1.12922 c 0.4813,0.0972 0.98112,0.17123 1.48556,0.22214 0.2638,-0.35635 0.34941,-0.46743 0.57618,-0.77517 -0.5137,-0.0324 -1.02508,-0.0902 -1.52027,-0.17125 z m 12.22236,-7.92989 c -0.0116,0.0232 -0.0231,0.0462 -0.037,0.0694 -0.1157,0.21057 -0.25454,0.42114 -0.4142,0.62245 -0.17355,0.82377 -0.27536,1.26574 -0.47205,2.05017 0.23603,-0.23371 0.44197,-0.47898 0.6132,-0.72889 v -0.008 c 0.0833,-0.47205 0.12264,-0.70808 0.2152,-1.30971 0.0486,-0.35172 0.0671,-0.47205 0.0949,-0.69418 m 0.0232,3.18864 c -0.0579,-0.1967 -0.0671,-0.22909 -0.11801,-0.39106 -0.0694,-0.21288 -0.10414,-0.3147 -0.19438,-0.56229 -0.1828,0.26147 -0.40263,0.51369 -0.65253,0.75435 0.20594,0.41189 0.30313,0.62246 0.46973,1.00425 0.14579,-0.18743 0.27305,-0.38179 0.37949,-0.57618 0.0416,-0.0764 0.0787,-0.1528 0.1157,-0.22907 m -4.8223,1.21945 c -0.0787,0.15499 -0.1828,0.35635 -0.26842,0.52296 0.0787,-0.0208 0.15502,-0.0416 0.2314,-0.0648 0.3656,-0.10646 0.71963,-0.22677 1.05748,-0.35866 l 0.002,-0.005 c 0.33553,-0.7613 0.50908,-1.16623 0.80526,-1.89976 -0.37255,0.18281 -0.77055,0.34708 -1.18706,0.49287 -0.18743,0.39568 -0.35173,0.74046 -0.64097,1.31202 m -1.46011,2.75593 c -0.48362,0.088 -0.98806,0.15264 -1.49482,0.19438 -0.19206,0.28924 -0.33553,0.49982 -0.58312,0.85848 0.51602,-0.0232 1.02972,-0.0717 1.52953,-0.1434 0.19437,-0.31471 0.32395,-0.5299 0.54841,-0.90939 m 5.58358,-2.68883 c -0.21289,0.23603 -0.45816,0.4628 -0.7289,0.67567 -0.11338,0.37024 -0.18974,0.62245 -0.33552,1.05981 0.2985,-0.21289 0.56923,-0.43736 0.80757,-0.67337 0.0926,-0.36792 0.15504,-0.62245 0.25685,-1.06211 m -14.77469,2.34629 c 0.36793,0.19205 0.76361,0.36792 1.17781,0.52526 0.0833,-0.11569 0.2661,-0.36792 0.47436,-0.65254 -0.43039,-0.14122 -0.8446,-0.30542 -1.23334,-0.4836 -0.12495,0.18279 -0.24759,0.35865 -0.41883,0.61088 m 5.29204,0.35172 c -0.39106,-0.59701 -0.61783,-0.94873 -1.05517,-1.6568 -0.40725,-0.0556 -0.8122,-0.12494 -1.20326,-0.20826 -0.0833,-0.0185 -0.16429,-0.0371 -0.24528,-0.0556 0.0879,0.16204 0.19668,0.35868 0.27767,0.5114 l 0.007,0.0118 c 0.20826,0.37254 0.38875,0.69418 0.70114,1.22408 0.49518,0.0809 1.00657,0.13887 1.51796,0.17354 m 4.28777,-3.60515 c -0.39337,0.69651 -0.60857,1.06673 -1.00889,1.72853 0.49288,-0.0672 0.9765,-0.15734 1.44392,-0.27074 v -0.002 c 0.21057,-0.39567 0.3147,-0.59235 0.5808,-1.11531 0.18974,-0.37718 0.21983,-0.44198 0.34478,-0.69419 -0.0995,0.0324 -0.20363,0.0625 -0.30776,0.0949 -0.34246,0.0972 -0.6965,0.18511 -1.05285,0.25917 m -10.47993,1.68225 c 0.23833,0.16657 0.4975,0.32396 0.77055,0.47204 0.0787,0.044 0.15965,0.0856 0.23834,0.12729 -0.15257,-0.3864 -0.16414,-0.42112 -0.28447,-0.73118 -0.16892,-0.45355 -0.24528,-0.65948 -0.44428,-1.22177 0,0 0,-0.002 0,-0.005 -0.32164,-0.19904 -0.61783,-0.41424 -0.88393,-0.63868 0.35635,1.26572 0.57618,1.91595 0.60394,1.99694 m 13.69635,-2.80686 c -0.2985,0.76824 -0.46742,1.18012 -0.78906,1.92522 0.39106,-0.16657 0.75897,-0.35172 1.09913,-0.55304 0,0 0,-0.002 0.002,-0.005 l 0.002,-0.008 c 0.15504,-0.43734 0.23603,-0.65718 0.42114,-1.21946 0.12958,-0.39336 0.15736,-0.47667 0.24065,-0.74278 -0.0625,0.0462 -0.12726,0.0902 -0.19206,0.13416 -0.24527,0.16422 -0.50676,0.32165 -0.78443,0.46973 m -8.16367,3.11923 c 0.40725,0.64328 0.63403,0.99038 1.06674,1.63135 0.2152,0.0101 0.43502,0.0118 0.65716,0.0134 0.18512,-0.002 0.37024,-0.005 0.54841,-0.0101 0.12728,-0.005 0.25916,-0.0118 0.38874,-0.0185 -0.13881,-0.19206 -0.27765,-0.38413 -0.41418,-0.57617 -0.36792,-0.51603 -0.46974,-0.65718 -0.67799,-0.95337 -0.52527,-0.005 -1.05285,-0.0348 -1.56887,-0.088 m -2.9851,0.92091 c -0.35162,-0.72669 -0.53211,-1.12469 -0.86069,-1.86749 l -0.002,-0.005 c -0.3309,-0.1389 -0.64791,-0.28927 -0.94642,-0.45124 -0.0532,-0.03 -0.10644,-0.0601 -0.15965,-0.0902 0.0648,0.17818 0.14347,0.38874 0.20595,0.55303 0.35403,0.92558 0.51832,1.31434 0.54609,1.38144 0.38411,0.17818 0.79137,0.33784 1.21714,0.47899 m 14.10823,-3.77641 c -0.0347,0.15264 -0.0833,0.30545 -0.14347,0.45355 -0.0393,0.35172 -0.0694,0.61783 -0.12727,1.0274 0.10876,-0.23834 0.18743,-0.479 0.23603,-0.72428 0.0139,-0.26609 0.0255,-0.48361 0.0347,-0.75667 m -12.36816,4.22539 c -0.18512,-0.32626 -0.21982,-0.38643 -0.37486,-0.66641 -0.22446,-0.40727 -0.32627,-0.5947 -0.59469,-1.10377 v -0.002 c -0.44891,-0.11804 -0.88393,-0.25684 -1.29582,-0.41419 0.3309,0.72427 0.51833,1.11995 0.88162,1.85116 0.33784,0.0996 0.68725,0.18975 1.04129,0.26612 0.11569,0.0255 0.23139,0.0485 0.34246,0.0693 m 3.49177,-2.4528 c 0.21983,-0.32395 0.25916,-0.38411 0.41189,-0.6132 -0.12726,0.007 -0.25454,0.0118 -0.38412,0.0168 -0.18281,0.007 -0.36792,0.008 -0.55072,0.008 -0.21983,0 -0.43966,-0.005 -0.65948,-0.0118 -0.17818,0.24759 -0.50213,0.6965 -1.06905,1.47631 0.51601,0.0556 1.04591,0.0856 1.57349,0.0902 0.30775,-0.43271 0.40726,-0.57386 0.67799,-0.96724 m 7.12007,-7.15012 c -0.002,0.005 -0.007,0.0118 -0.009,0.0168 -0.16893,0.2661 -0.37949,0.52295 -0.63172,0.76592 -0.83533,0.81452 -2.05248,1.44622 -3.47094,1.84192 -0.007,0 -0.0139,0.002 -0.0209,0.005 -0.10876,0.0301 -0.2152,0.0578 -0.32627,0.0856 l -0.0301,0.007 c -1.13384,0.27535 -2.40883,0.41188 -3.7625,0.35172 -0.0324,0 -0.0648,-0.002 -0.0949,-0.002 -1.88586,-0.0948 -3.58662,-0.55992 -4.88475,-1.27031 -1.38838,-0.73128 -2.42272,-1.77721 -2.53379,-3.15631 -0.074,-0.84229 0.24759,-1.61746 0.78212,-2.26307 0.009,-0.0134 0.0209,-0.0277 0.0324,-0.0416 0.0208,-0.0232 0.0416,-0.0485 0.0625,-0.0717 l -0.12265,0.088 c -0.79368,0.57154 -2.02934,1.71927 -2.02934,3.31359 0,0.1805 0.0161,0.36793 0.0509,0.55999 0.47436,2.61477 4.29935,4.67883 8.89719,4.80377 3.49872,0.0949 6.77991,-0.92096 8.55935,-2.65411 0.83996,-0.81682 1.28424,-1.75166 1.28656,-2.70039 -0.002,-1.43929 -0.97186,-2.55925 -2.15198,-3.41079 0.96955,1.09913 1.20788,2.44818 0.398,3.73243 m -14.27998,-0.3201 v -0.002 c 0,-1.03202 0.70112,-1.99927 1.97381,-2.72353 1.25416,-0.71501 2.91096,-1.10839 4.66263,-1.10839 1.7563,0 3.4131,0.39338 4.66727,1.1107 1.27036,0.72427 1.96917,1.69151 1.96917,2.72123 v 0.002 c 0,0.65948 -0.27998,1.2102 -0.64559,1.64985 0.0255,-0.0185 0.0532,-0.0348 0.081,-0.0532 l 0.12496,-0.0902 c 0.9279,-0.66873 1.70308,-1.6406 1.70308,-2.78832 0,-1.37219 -1.06673,-2.45282 -2.25612,-3.147 -1.54572,-0.8608 -3.61672,-1.30276 -5.32905,-1.35135 -0.10413,-0.002 -0.20826,-0.005 -0.3147,-0.005 -3.94762,0 -7.22651,1.65912 -7.80732,3.81803 -0.0602,0.22446 -0.0925,0.45355 -0.0925,0.68494 0,0.0809 0.005,0.15969 0.0116,0.23602 0.0416,0.45816 0.20363,0.89782 0.46743,1.3097 l 0.002,0.002 c 0.0161,0.0255 0.037,0.0532 0.0555,0.0786 0.29388,0.42346 0.68031,0.78445 1.076,1.09682 0.0972,0.0741 0.20131,0.1434 0.30544,0.2152 -0.42577,-0.51372 -0.65485,-1.08064 -0.65485,-1.65682 m 6.63644,11.50965 c -3.90365,0 -6.82388,-1.46936 -7.40468,-2.05249 1.10145,0.7937 3.04749,2.5361 7.40468,2.5361 4.32943,0 6.27779,-1.72158 7.40468,-2.53378 -2.02471,1.45779 -4.90791,2.05017 -7.40468,2.05017 m 5.75949,-1.12462 c 0.0579,-0.0277 0.12033,-0.0509 0.17817,-0.0788 -0.0579,0.0277 -0.12033,0.0509 -0.17817,0.0788 m -0.45124,0.18745 c 0.0717,-0.0277 0.14347,-0.0556 0.2152,-0.0856 -0.0717,0.03 -0.14347,0.0579 -0.2152,0.0856 m 0.91865,-0.40727 c 0.0347,-0.0185 0.0717,-0.0348 0.10876,-0.0532 -0.037,0.0185 -0.0741,0.0348 -0.10876,0.0532 m -1.13616,0.49056 c -0.10644,0.0393 -0.2152,0.0764 -0.32627,0.11334 0.11108,-0.0369 0.21983,-0.0741 0.32627,-0.11334 m 2.31396,-1.19631 c -0.36329,0.25916 -0.72427,0.52064 -1.08756,0.78212 l 1.08756,-0.78212 c -0.0579,0.0393 -0.12033,0.0809 -0.18049,0.12258 0.0602,-0.0416 0.12265,-0.0833 0.18049,-0.12258 m -0.53221,0.3471 c 0.0648,-0.0393 0.1319,-0.0788 0.19669,-0.1204 -0.0648,0.0416 -0.1319,0.0809 -0.19669,0.1204 m -0.3147,0.18279 c 0.0509,-0.0277 0.10413,-0.0556 0.15272,-0.0833 -0.0486,0.0277 -0.10181,0.0556 -0.15272,0.0833 m -13.91617,-0.4975 1.04128,0.74973 c -0.34709,-0.24991 -0.69419,-0.49982 -1.04128,-0.74973 m 11.6994,1.41151 c 0.0995,-0.0301 0.20131,-0.0601 0.30081,-0.0925 -0.0995,0.0324 -0.20132,0.0625 -0.30081,0.0925 m -9.96392,-0.46046 c -0.10644,-0.044 -0.21288,-0.0902 -0.31469,-0.13652 0.1018,0.0464 0.20826,0.0925 0.31469,0.13652 m 1.35599,0.4813 c -0.12496,-0.0348 -0.25223,-0.0717 -0.37487,-0.11334 0.12265,0.0417 0.24992,0.0788 0.37487,0.11334 m -2.06637,-0.81221 c 0.0879,0.0462 0.18049,0.0903 0.27305,0.13416 -0.0926,-0.044 -0.18512,-0.088 -0.27305,-0.13416 m 1.55961,0.65486 c -0.10644,-0.0371 -0.21289,-0.0717 -0.31701,-0.111 0.10412,0.0393 0.21057,0.0741 0.31701,0.111 m -0.74741,-0.27999 c 0.0949,0.0416 0.19437,0.0788 0.29387,0.11569 -0.0995,-0.037 -0.199,-0.0741 -0.29387,-0.11569 m 9.46643,0.52758 c 0.0763,-0.0208 0.15503,-0.0393 0.23139,-0.0625 -0.0763,0.0232 -0.15504,0.0417 -0.23139,0.0625 m -10.77151,-1.18012 c -0.0833,-0.0485 -0.16429,-0.0972 -0.24296,-0.14811 0.0787,0.0509 0.15966,0.0996 0.24296,0.14811 m -0.57849,-0.37718 c 0.0787,0.0579 0.16198,0.11335 0.24528,0.16893 -0.0833,-0.0556 -0.1666,-0.111 -0.24528,-0.16893 m 0.93022,0.57849 c -0.0787,-0.044 -0.15966,-0.0856 -0.23602,-0.12963 0.0763,0.044 0.15733,0.0856 0.23602,0.12963 m 2.77907,1.04359 c 0.42577,0.10411 0.87005,0.18976 1.3259,0.25686 -0.45585,-0.0672 -0.90013,-0.15263 -1.3259,-0.25686 m 4.4914,0.40959 c 0.10413,-0.005 0.20825,-0.0101 0.31238,-0.0168 -0.10412,0.007 -0.20825,0.0118 -0.31238,0.0168 m 2.09182,-0.23835 c 0.10644,-0.0208 0.21057,-0.0393 0.3147,-0.0601 -0.10412,0.0208 -0.20825,0.0393 -0.3147,0.0601 m -0.46047,0.0764 c 0.0879,-0.0134 0.18048,-0.0255 0.26841,-0.0416 -0.0879,0.0168 -0.18049,0.0277 -0.26841,0.0416 m -0.77981,0.10176 c -0.17586,0.0168 -0.35172,0.0324 -0.53221,0.044 0.18049,-0.0118 0.35635,-0.0277 0.53221,-0.044 m 0.52989,-0.0625 c -0.16891,0.0232 -0.34015,0.0416 -0.51138,0.0601 0.17123,-0.0185 0.34247,-0.0371 0.51138,-0.0601 m -6.35404,-0.41568 c 0.1157,0.0324 0.2314,0.0625 0.3471,0.0925 -0.11571,-0.0301 -0.2314,-0.0601 -0.3471,-0.0925 m 7.62451,0.18281 c 0.0833,-0.0185 0.16661,-0.0348 0.2476,-0.0556 -0.081,0.0208 -0.16429,0.0371 -0.2476,0.0556 m -5.62524,0.23139 c 0.0463,0.005 0.0902,0.008 0.13653,0.0168 -0.0463,-0.007 -0.0903,-0.0118 -0.13653,-0.0168 m 2.17744,0.14341 c -0.5623,0 -1.11302,-0.0277 -1.64754,-0.0809 0.53452,0.0532 1.08524,0.0809 1.64754,0.0809 m 4.18133,-8.97123 c 0.50445,-0.18049 0.97186,-0.39338 1.39069,-0.63172 0.38412,-0.35866 0.73584,-0.82609 0.87468,-1.39301 v -0.51361 c 0,-2.01084 -2.89245,-3.64449 -6.4467,-3.64449 -3.55657,0 -6.4467,1.63365 -6.4467,3.64449 v 0.50213 c 0.12033,0.49518 0.41651,0.97418 0.87236,1.40457 0.41883,0.23834 0.88856,0.44891 1.39301,0.62941 1.3259,-0.60857 2.90865,-0.85155 4.18133,-0.85155 1.6915,0 3.11459,0.36329 4.18133,0.85386 m -7.7888,0.18512 c -0.0764,-0.0232 -0.1504,-0.044 -0.22446,-0.0672 1.23334,-0.51369 2.66569,-0.71964 3.83193,-0.71964 1.52953,0 2.83229,0.30082 3.83655,0.71732 -0.0764,0.0232 -0.15272,0.0462 -0.22909,0.0693 -1.10144,-0.32163 -2.33247,-0.49286 -3.60746,-0.49286 -1.27499,0 -2.50371,0.17123 -3.60747,0.49286"
       id="path62721"
       inkscape:connector-curvature="0" />
    <path
       style="fill:none;stroke:#ffffff;stroke-width:0.11847489;stroke-linecap:butt;stroke-linejoin:miter;stroke-miterlimit:10;stroke-opacity:1"
       d="m 125.95911,168.20036 c 0.16661,-0.3309 0.21288,-0.41652 0.32858,-0.65023 -0.0995,0.0324 -0.20131,0.0625 -0.30313,0.0925 -0.34015,0.0996 -0.69419,0.18743 -1.05285,0.26148 -0.16892,0.29387 -0.30776,0.53451 -0.54147,0.92328 0.47899,-0.0809 0.95104,-0.18513 1.40226,-0.31008 z m -12.09277,-1.55268 c 0.0972,-0.17355 0.18049,-0.3147 0.31932,-0.55072 -0.2985,-0.22446 -0.56923,-0.46048 -0.80526,-0.70807 -0.081,0.16892 -0.14346,0.30082 -0.24065,0.516 0.20826,0.25687 0.45122,0.50676 0.72659,0.74279 z m -0.74741,-6.25002 c 0.10412,0.49057 0.14808,0.69419 0.2823,1.26111 0.22445,0.23834 0.4813,0.46975 0.76824,0.68725 -0.0717,-0.22907 -0.20595,-0.66179 -0.29619,-0.97417 -0.007,-0.0277 -0.0161,-0.0625 -0.0208,-0.0972 -0.0139,-0.0694 -0.0277,-0.13887 -0.0578,-0.18743 -0.25222,-0.21982 -0.48131,-0.45123 -0.67568,-0.68957 z m 1.86736,1.52723 c -0.33552,-0.19207 -0.64791,-0.40264 -0.93021,-0.62246 0.15504,0.50444 0.21289,0.68724 0.39569,1.24723 0.23834,0.16657 0.4975,0.32394 0.77055,0.47205 0.0764,0.0416 0.15504,0.0833 0.23602,0.12493 -0.14578,-0.36099 -0.16892,-0.41884 -0.2823,-0.70808 -0.0185,-0.0532 -0.037,-0.11334 -0.0532,-0.17586 -0.0347,-0.12493 -0.0694,-0.25454 -0.13652,-0.33785 z m 0.79832,1.37912 c 0.38181,0.17586 0.78675,0.33783 1.21021,0.47667 -0.19206,-0.39105 -0.34016,-0.69419 -0.43734,-0.90708 -0.0139,-0.0277 -0.0255,-0.0601 -0.037,-0.0925 -0.0208,-0.0648 -0.044,-0.12963 -0.081,-0.16657 -0.40263,-0.15499 -0.78675,-0.3309 -1.14541,-0.51833 0.18974,0.48594 0.2661,0.67105 0.49056,1.2079 z m 12.04187,3.63755 c -0.37024,0.18048 -0.76824,0.34477 -1.18012,0.49056 -0.15504,0.31469 -0.27768,0.56924 -0.48594,0.9788 0.4304,-0.13416 0.84691,-0.28693 1.23797,-0.45584 0.14579,-0.33553 0.25454,-0.58776 0.42809,-1.01352 z m -12.64581,0.37255 c 0.17354,-0.26149 0.18512,-0.27537 0.29156,-0.43041 -0.0949,-0.0485 -0.18975,-0.0972 -0.28231,-0.1481 -0.26379,-0.1434 -0.51832,-0.29849 -0.75435,-0.46046 -0.11569,0.18973 -0.199,0.32626 -0.33784,0.56228 0.29388,0.22678 0.61783,0.44428 0.96955,0.64328 z m 13.70329,-0.41884 c 0.14115,-0.42114 0.16197,-0.47898 0.23834,-0.71733 -0.0625,0.044 -0.12495,0.088 -0.18975,0.13182 -0.24528,0.16422 -0.50676,0.32165 -0.78443,0.46743 -0.14115,0.35634 -0.23834,0.59931 -0.41652,1.02508 0.37024,-0.17585 0.72196,-0.37024 1.04129,-0.57849 z m -15.86222,-3.68613 c -0.0161,-0.0208 -0.0324,-0.0416 -0.0486,-0.0625 0.0347,0.17817 0.0717,0.37949 0.10412,0.53914 0.20826,1.02279 0.30776,1.43236 0.32396,1.4902 0.22445,0.23834 0.48362,0.47205 0.77055,0.68956 -0.24066,-0.78443 -0.3633,-1.21484 -0.57387,-2.01546 0,-0.002 -0.002,-0.005 -0.002,-0.007 -0.21519,-0.20366 -0.40726,-0.41654 -0.57386,-0.63405 z m 0.35866,-1.33978 c -0.0949,0.20593 -0.18049,0.39336 -0.30544,0.68955 -0.037,0.0925 -0.0856,0.21288 -0.12265,0.31007 0.037,0.0532 0.0787,0.10881 0.11802,0.16204 0.15965,0.20594 0.34015,0.40957 0.54378,0.60164 0.19437,-0.37486 0.31701,-0.60164 0.57386,-1.05286 -0.2985,-0.22446 -0.57155,-0.46278 -0.80757,-0.71037 z m 5.74789,2.42966 c 0.49287,0.0809 0.99963,0.13886 1.51102,0.17122 -0.27999,-0.4142 -0.38181,-0.56924 -0.68262,-1.02971 -0.4975,-0.0556 -0.99269,-0.13182 -1.46706,-0.23139 0.24991,0.43734 0.34941,0.60856 0.63866,1.08988 z m -2.34405,-1.55962 c 0.22677,0.46974 0.31239,0.6456 0.57155,1.15699 0.33784,0.0996 0.68725,0.18975 1.04129,0.2661 0.11337,0.0232 0.22677,0.0464 0.34015,0.0672 -0.18512,-0.3147 -0.22445,-0.3795 -0.37255,-0.64328 -0.0787,-0.13887 -0.18049,-0.32165 -0.25916,-0.46048 -0.45354,-0.10881 -0.89782,-0.23834 -1.32128,-0.38645 z m 13.36546,2.28851 c -0.16892,-0.3656 -0.27537,-0.58544 -0.50213,-1.02508 -0.21983,0.18975 -0.45817,0.37254 -0.71502,0.54608 -0.0625,0.044 -0.12726,0.0856 -0.19437,0.12728 0.0648,0.10411 0.14347,0.23373 0.20363,0.33322 l 0.005,0.007 c 0.13189,0.22214 0.25685,0.4304 0.43271,0.7451 0.29156,-0.23139 0.54841,-0.47899 0.77055,-0.73353 z m -0.52065,-1.23565 c 0,0 0,-0.002 0,-0.005 0.21752,-0.81452 0.32627,-1.25186 0.49982,-2.01778 -0.21288,0.23601 -0.45816,0.4651 -0.73121,0.6803 -0.12958,0.42809 -0.24297,0.80063 -0.45354,1.43929 -0.0555,0.16657 -0.12726,0.38179 -0.18743,0.55997 0.0463,-0.0301 0.0949,-0.0625 0.14115,-0.0925 0.26379,-0.17818 0.50907,-0.36791 0.73121,-0.56461 z m -6.58322,0.65948 c 0.50907,-0.0416 1.01583,-0.10881 1.50639,-0.1967 l -0.65254,-0.87004 c -0.50444,0.0694 -1.02277,0.11569 -1.54341,0.13416 0.22908,0.31239 0.45816,0.62245 0.68956,0.93253 z m 6.09729,1.49018 c -0.11338,-0.18975 -0.1481,-0.24759 -0.25453,-0.42807 -0.13884,-0.23141 -0.21752,-0.36099 -0.41652,-0.67568 -0.34709,0.20363 -0.72658,0.39336 -1.12459,0.56228 0.35636,0.52297 0.51602,0.76131 0.78675,1.17319 0.26842,-0.1434 0.52527,-0.29851 0.76361,-0.45816 0.0833,-0.0556 0.16429,-0.11334 0.24528,-0.17356 z m -2.10802,-0.4142 c -0.33552,0.13181 -0.68956,0.24991 -1.05054,0.35635 -0.0856,0.0255 -0.17123,0.0485 -0.25685,0.0717 l 0.28693,0.40032 c 0.18743,0.2638 0.36792,0.51601 0.62015,0.87004 0.42345,-0.15045 0.83071,-0.31931 1.2102,-0.50444 -0.25917,-0.39106 -0.42346,-0.63402 -0.80989,-1.194 z m 3.11228,-4.0124 c -0.12264,-0.25686 -0.16892,-0.35173 -0.30776,-0.62477 -0.25453,0.24064 -0.54146,0.47203 -0.85848,0.68955 0.17587,0.28694 0.23603,0.38413 0.398,0.6618 0.28925,-0.22909 0.5461,-0.47437 0.76824,-0.72658 z m -5.86358,1.81415 0.64097,0.85154 c 0.35403,-0.0741 0.70576,-0.15969 1.04128,-0.25687 0.11338,-0.0348 0.22445,-0.0672 0.3309,-0.10175 -0.1157,-0.15734 -0.2314,-0.3147 -0.3471,-0.47205 l -0.24065,-0.32627 c -0.45816,0.12258 -0.93715,0.22446 -1.4254,0.30544 z m 2.35099,0.37949 c 0.42345,-0.14811 0.82839,-0.31933 1.20789,-0.50446 -0.19438,-0.2823 -0.28,-0.40493 -0.51139,-0.73351 -0.40263,0.1689 -0.8284,0.32163 -1.27037,0.45353 0.2985,0.40495 0.31007,0.42345 0.57387,0.78444 z m 1.49944,-0.65486 c 0.26842,-0.14341 0.52527,-0.29851 0.76361,-0.45817 0.0833,-0.0556 0.16429,-0.11116 0.24066,-0.16892 -0.14116,-0.23603 -0.14579,-0.24064 -0.24991,-0.40957 l -0.0185,-0.03 c -0.0463,-0.0741 -0.10181,-0.16204 -0.14809,-0.23602 -0.33321,0.21057 -0.69882,0.40495 -1.08294,0.58311 0.22909,0.33089 0.29619,0.42577 0.49519,0.71964 z m -15.85064,0.68957 c 0.007,0.27303 0.0509,0.5484 0.13189,0.81913 0.0278,-0.12493 0.0579,-0.23834 0.10645,-0.41652 -0.0995,-0.22444 -0.17586,-0.45121 -0.22677,-0.68261 -0.005,0.0809 -0.009,0.16657 -0.0116,0.28 z m 2.89708,0.0741 0.007,-0.0118 c 0.0995,-0.155 0.17123,-0.26381 0.28924,-0.43967 -0.0949,-0.0485 -0.19206,-0.0972 -0.28693,-0.1481 -0.26611,-0.14575 -0.52064,-0.30082 -0.75435,-0.4628 -0.25917,0.43966 -0.38412,0.6618 -0.60626,1.07368 0.27305,0.23603 0.5808,0.4628 0.91633,0.67337 0.14347,-0.23139 0.22677,-0.36329 0.43503,-0.68494 z m 15.64239,-3.32749 c -0.0602,-0.199 -0.0671,-0.22214 -0.1157,-0.37256 -0.0208,-0.0578 -0.0439,-0.12963 -0.0671,-0.19436 -0.16429,0.26148 -0.3656,0.51832 -0.597,0.7636 0.12727,0.26148 0.17123,0.35404 0.28693,0.60627 0.14579,-0.18743 0.27305,-0.38181 0.3795,-0.5785 0.0393,-0.0717 0.0787,-0.1481 0.11337,-0.22445 z m -9.1147,4.01471 c 0.18049,0 0.36329,-0.002 0.54841,-0.008 0.12726,-0.002 0.25685,-0.008 0.38412,-0.0168 -0.13654,-0.18511 -0.27305,-0.37022 -0.40958,-0.55535 -0.0856,-0.11805 -0.20131,-0.27303 -0.28924,-0.39336 -0.0764,0.002 -0.15504,0.002 -0.23371,0.002 -0.45122,0 -0.90245,-0.0185 -1.34673,-0.0556 0.27999,0.41882 0.37718,0.56229 0.68956,1.01583 0.21983,0.007 0.43965,0.0118 0.65717,0.0118 z m -3.34137,0.45587 0.37949,-0.52296 c -0.12264,-0.0232 -0.24296,-0.0485 -0.36097,-0.074 -0.35404,-0.0764 -0.70345,-0.16423 -1.03897,-0.2661 -0.40495,0.56692 -0.59006,0.8307 -0.88394,1.25184 0.41883,0.16204 0.8608,0.30314 1.31433,0.42347 0.19669,-0.27074 0.39338,-0.54149 0.59006,-0.81222 z m 12.71523,-6.02788 c -0.0694,0.25221 -0.17123,0.50212 -0.2985,0.7451 0.074,0.23371 0.10181,0.32395 0.15504,0.5299 0.0995,-0.27305 0.16197,-0.55304 0.18512,-0.83304 -0.0139,-0.19668 -0.0208,-0.28462 -0.0416,-0.44196 z m -18.05585,6.60867 c 0.0833,-0.18975 0.0972,-0.22446 0.16197,-0.36561 -0.0579,-0.0672 -0.11338,-0.13651 -0.16661,-0.20593 -0.14115,-0.18281 -0.2661,-0.37256 -0.37023,-0.56461 -0.044,0.14341 -0.081,0.2661 -0.1319,0.45817 0.11108,0.27767 0.26148,0.55071 0.44891,0.81219 z m 11.52816,2.23066 c -0.34015,-0.46741 -0.68262,-0.93714 -1.02277,-1.40457 -0.41882,0.0463 -0.84459,0.0786 -1.27268,0.0902 -0.0995,0.005 -0.19669,0.007 -0.29619,0.0101 0.10181,0.13886 0.22446,0.31239 0.31933,0.44427 0.1828,0.25455 0.40957,0.56924 0.76361,1.05749 0.50907,-0.0416 1.01814,-0.10881 1.5087,-0.19668 z m 1.74705,-0.43502 c -0.1157,-0.16423 -0.23372,-0.32626 -0.35173,-0.49055 -0.16661,-0.23141 -0.29618,-0.41421 -0.57617,-0.80065 -0.46974,0.11334 -0.95798,0.20595 -1.45549,0.27305 l 1.00658,1.38144 c 0.35403,-0.0741 0.70344,-0.16204 1.04128,-0.25917 0.11106,-0.0324 0.22445,-0.0672 0.33553,-0.10411 z m -7.88368,-1.86969 -0.28462,0.39338 c 0.088,0.0208 0.17587,0.0417 0.2638,0.0601 0.38874,0.0833 0.79137,0.1528 1.19631,0.20595 0.56461,-0.77288 0.69882,-0.95799 1.05286,-1.45086 -0.51602,-0.0348 -1.0274,-0.0925 -1.5249,-0.17356 -0.46742,0.64098 -0.46974,0.64561 -0.70345,0.96494 z m -2.27,-0.24296 c 0.27074,-0.39568 0.45123,-0.65255 0.8608,-1.23334 -0.43271,-0.14122 -0.84923,-0.30314 -1.23797,-0.48361 -0.15966,0.23832 -0.31239,0.46741 -0.53684,0.81451 -0.0671,0.10176 -0.15041,0.23602 -0.21983,0.34247 0.0694,0.0393 0.13652,0.0786 0.20826,0.11569 0.28924,0.15969 0.60163,0.30775 0.92558,0.44428 z m -3.86663,-3.57969 c 0.002,0.42113 0.007,0.81219 0.0324,1.43233 0.0347,0.23834 0.0972,0.47437 0.18511,0.70807 -0.081,-0.69418 -0.12726,-1.15234 -0.18743,-2.00157 -0.002,-0.002 0,-0.005 0,-0.007 -0.0116,-0.044 -0.0208,-0.088 -0.0301,-0.13182 z m 18.85417,0.23602 v -0.23834 c -0.007,0.03 -0.0116,0.0625 -0.0185,0.0925 0.007,0.0509 0.0116,0.0996 0.0185,0.14575 z m -18.35898,0.97649 c -0.13422,-0.21288 -0.24297,-0.43272 -0.3309,-0.65486 0.12033,1.27731 0.21983,1.91133 0.22908,1.96918 0.10876,0.20827 0.24297,0.41652 0.39569,0.61783 0.0324,0.0416 0.0648,0.0833 0.0995,0.12494 -0.074,-0.34247 -0.0902,-0.42578 -0.15504,-0.74279 -0.0902,-0.46973 -0.13651,-0.70344 -0.23834,-1.30507 0,-0.002 0,-0.007 0,-0.0101 z m 17.9309,2.14967 c 0.0532,-0.37255 0.0694,-0.47899 0.0949,-0.66874 -0.0139,0.0232 -0.0255,0.044 -0.037,0.0672 -0.1157,0.21057 -0.25454,0.42115 -0.4142,0.62245 -0.0741,0.3471 -0.13421,0.6294 -0.23834,1.07138 0.21057,-0.23603 0.39106,-0.48362 0.53916,-0.73353 z m -18.42609,-4.6395 v 0.50445 c 0,0.19438 0.0185,0.39106 0.0555,0.58542 0.0486,-0.27073 0.0926,-0.47205 0.18743,-0.82607 -0.10181,-0.22445 -0.17818,-0.45354 -0.22909,-0.68493 -0.007,0.12039 -0.0139,0.25453 -0.0139,0.42113 z m 0.39337,0.28694 c 0.10876,0.20825 0.24297,0.4165 0.39569,0.61782 0.0324,0.0393 0.0648,0.0809 0.0972,0.12039 -0.0787,-0.35865 -0.0902,-0.41881 -0.15272,-0.71732 -0.009,-0.0556 -0.0185,-0.11804 -0.0277,-0.18511 -0.0185,-0.13182 -0.0347,-0.26843 -0.0787,-0.37024 -0.15504,-0.21982 -0.28462,-0.44659 -0.38875,-0.67568 0.0509,0.44427 0.0787,0.66179 0.15504,1.21021 z m -0.36097,-1.0922 c 0.0347,0.23602 0.0972,0.47668 0.18743,0.71271 -0.009,-0.11335 -0.0185,-0.22446 -0.0255,-0.33322 -0.0231,-0.29387 -0.0463,-0.59699 -0.10644,-0.89088 -0.0324,-0.10176 -0.0578,-0.20594 -0.081,-0.31006 0.005,0.23371 0.0116,0.45584 0.0255,0.82145 z m 9.96855,6.24076 c -0.0949,0.13652 -0.21751,0.31469 -0.31701,0.46048 0.0972,-0.002 0.19437,-0.005 0.29156,-0.007 0.42576,-0.0134 0.85385,-0.0463 1.27036,-0.0925 0.42114,-0.67798 0.63866,-1.03897 1.02046,-1.70308 -0.48825,0.088 -0.99269,0.15263 -1.49945,0.19438 -0.21751,0.33321 -0.42577,0.65022 -0.76592,1.14773 z m -9.63071,-4.91717 c -0.17355,0.59237 -0.22215,0.87468 -0.22909,0.91864 0.0879,0.27998 0.21289,0.55767 0.37487,0.82608 0.0694,-0.18743 0.11107,-0.30312 0.21982,-0.56692 0.0833,-0.19668 0.10181,-0.24528 0.17355,-0.40495 -0.0578,-0.0672 -0.1157,-0.13886 -0.16892,-0.20825 -0.14115,-0.18279 -0.26611,-0.37254 -0.37023,-0.5646 z m 9.39931,8.16134 0.18049,-0.25684 c 0.23603,-0.33785 0.26611,-0.38181 0.40726,-0.58775 -0.12726,0.007 -0.25453,0.0117 -0.37949,0.0168 -0.1828,0.007 -0.36792,0.0101 -0.55072,0.0101 -0.21752,0 -0.43966,-0.005 -0.65948,-0.0134 -0.19438,0.26378 -0.38875,0.52758 -0.58312,0.78906 0.40726,0.0324 0.82608,0.0464 1.2426,0.0464 0.11569,0 0.22908,0 0.34246,-0.002 z m 8.95504,-7.28204 c 0,-0.002 0,-0.005 0,-0.007 0.0532,-0.71733 0.081,-1.15699 0.10181,-1.75398 -0.0347,0.15263 -0.0833,0.30544 -0.14347,0.45584 -0.0509,0.46048 -0.0972,0.8585 -0.19668,1.53186 -0.0231,0.15499 -0.0532,0.3494 -0.081,0.52295 0.009,-0.0134 0.0161,-0.0255 0.0231,-0.0393 0.12494,-0.23139 0.22676,-0.47205 0.29619,-0.71039 z m 0.11801,1.12691 c -0.0208,-0.3124 -0.0416,-0.50676 -0.0972,-0.8423 -0.0694,0.20132 -0.15503,0.40264 -0.26147,0.59702 -0.0301,0.0556 -0.0648,0.11334 -0.0995,0.17122 0.0324,0.0949 0.0717,0.21289 0.1018,0.30544 0.0602,0.18975 0.11108,0.35636 0.17355,0.59932 0.0972,-0.27304 0.15967,-0.55072 0.1828,-0.8307 z m -13.77733,4.7251 -0.0139,0.0208 c -0.21288,0.28925 -0.28461,0.38643 -0.47204,0.64329 0.43039,0.1481 0.88393,0.27767 1.34904,0.38411 l 0.15735,-0.21057 c 0.16892,-0.22445 0.2476,-0.33321 0.37486,-0.49982 -0.12264,-0.0232 -0.24296,-0.0463 -0.35634,-0.0717 -0.35404,-0.0764 -0.70345,-0.16422 -1.03898,-0.2661 z m 1.23334,1.12921 c 0.48131,0.0972 0.98112,0.17124 1.48557,0.22215 0.26379,-0.35635 0.3494,-0.46743 0.57617,-0.77519 -0.5137,-0.0324 -1.02508,-0.0902 -1.52027,-0.17122 z m 12.22235,-7.92994 c -0.0116,0.0232 -0.0231,0.0464 -0.037,0.0693 -0.11569,0.21057 -0.25453,0.42114 -0.4142,0.62245 -0.17354,0.82377 -0.27536,1.26575 -0.47204,2.05017 0.23602,-0.23371 0.44196,-0.47898 0.6132,-0.72889 v -0.008 c 0.0833,-0.47205 0.12264,-0.70808 0.21519,-1.30971 0.0486,-0.35172 0.0671,-0.47205 0.0949,-0.69418 z m 0.0231,3.18863 c -0.0579,-0.19668 -0.0671,-0.22907 -0.11801,-0.39104 -0.0694,-0.21289 -0.10412,-0.31472 -0.19437,-0.56231 -0.18281,0.26148 -0.40263,0.51371 -0.65254,0.75435 0.20594,0.41189 0.30313,0.62247 0.46973,1.00426 0.14579,-0.18743 0.27305,-0.38179 0.3795,-0.57617 0.0416,-0.0764 0.0787,-0.15281 0.11569,-0.22909 z m -4.82229,1.21947 c -0.0787,0.15498 -0.18281,0.35635 -0.26842,0.52296 0.0787,-0.0208 0.15504,-0.0416 0.2314,-0.0648 0.3656,-0.10646 0.71964,-0.22678 1.05748,-0.35867 l 0.002,-0.005 c 0.33552,-0.76129 0.50906,-1.16624 0.80525,-1.89977 -0.37255,0.18281 -0.77055,0.3471 -1.18706,0.49287 -0.18743,0.3957 -0.35172,0.74048 -0.64097,1.31202 z m -1.46011,2.75592 c -0.48362,0.088 -0.98806,0.15264 -1.49482,0.19438 -0.19206,0.28924 -0.33553,0.49982 -0.58312,0.85848 0.51601,-0.0232 1.02971,-0.0717 1.52953,-0.1434 0.19437,-0.3147 0.32395,-0.5299 0.54841,-0.90939 z m 5.58359,-2.68883 c -0.21288,0.23603 -0.45816,0.4628 -0.7289,0.67569 -0.11338,0.37024 -0.18974,0.62245 -0.33552,1.05979 0.2985,-0.21289 0.56923,-0.43734 0.80757,-0.67337 0.0926,-0.3679 0.15504,-0.62245 0.25685,-1.06211 z m -14.77466,2.34636 c 0.36792,0.19206 0.76361,0.36793 1.17781,0.52528 0.0833,-0.11569 0.26611,-0.36792 0.47436,-0.65254 -0.43039,-0.14122 -0.84459,-0.30544 -1.23334,-0.48362 -0.12495,0.18281 -0.24759,0.35867 -0.41883,0.61088 z m 5.29204,0.35174 c -0.39106,-0.59702 -0.61783,-0.94873 -1.05517,-1.65681 -0.40725,-0.0556 -0.8122,-0.12493 -1.20326,-0.20825 -0.0833,-0.0185 -0.16429,-0.0371 -0.24528,-0.0556 0.0879,0.16204 0.19669,0.35866 0.27768,0.51138 l 0.007,0.0117 c 0.20825,0.37256 0.38874,0.6942 0.70113,1.22409 0.49519,0.0809 1.00657,0.13887 1.51796,0.17355 z m 4.28777,-3.60517 c -0.39337,0.69651 -0.60857,1.06675 -1.00889,1.72854 0.49288,-0.0672 0.9765,-0.15734 1.44392,-0.27073 v -0.002 c 0.21057,-0.39569 0.3147,-0.59237 0.5808,-1.11533 0.18975,-0.37718 0.21983,-0.44196 0.34478,-0.69419 -0.0995,0.0324 -0.20363,0.0625 -0.30775,0.0949 -0.34247,0.0972 -0.69651,0.18511 -1.05286,0.25917 z m -10.47993,1.68226 c 0.23834,0.16658 0.4975,0.32395 0.77055,0.47205 0.0787,0.044 0.15967,0.0856 0.23834,0.12728 -0.15272,-0.38642 -0.16429,-0.42113 -0.28462,-0.73121 -0.16892,-0.45354 -0.24528,-0.65947 -0.44428,-1.22178 0,0 0,-0.002 0,-0.005 -0.32164,-0.199 -0.61783,-0.41418 -0.88394,-0.63864 0.35635,1.26573 0.57618,1.91595 0.60395,1.99694 z m 13.69635,-2.80683 c -0.2985,0.76822 -0.46742,1.18012 -0.78906,1.9252 0.39106,-0.16657 0.75898,-0.35172 1.09913,-0.55303 0,0 0,-0.002 0.002,-0.005 l 0.002,-0.008 c 0.15504,-0.43734 0.23603,-0.65716 0.42114,-1.21945 0.12958,-0.39338 0.15736,-0.47668 0.24065,-0.74278 -0.0625,0.0464 -0.12726,0.0902 -0.19206,0.13416 -0.24527,0.16423 -0.50675,0.32163 -0.78443,0.46973 z m -8.16366,3.11921 c 0.40725,0.64329 0.63402,0.99038 1.06673,1.63135 0.2152,0.0101 0.43503,0.0117 0.65717,0.0134 0.18512,-0.002 0.37023,-0.005 0.54841,-0.008 0.12726,-0.005 0.25916,-0.0118 0.38875,-0.0185 -0.13884,-0.19207 -0.27768,-0.38413 -0.4142,-0.57618 -0.36792,-0.51602 -0.46974,-0.65717 -0.678,-0.95335 -0.52527,-0.005 -1.05285,-0.0348 -1.56886,-0.088 z m -2.98502,0.92096 c -0.35172,-0.72658 -0.53221,-1.12459 -0.86079,-1.86737 l -0.002,-0.005 c -0.3309,-0.13889 -0.64791,-0.28926 -0.94641,-0.45124 -0.0532,-0.0301 -0.10644,-0.0601 -0.15967,-0.0902 0.0648,0.17818 0.14346,0.38875 0.20594,0.55304 0.35403,0.92557 0.51833,1.31432 0.5461,1.38144 0.38411,0.17817 0.79137,0.33783 1.21714,0.47898 z m 14.10824,-3.77639 c -0.0347,0.1528 -0.0833,0.30544 -0.14347,0.45354 -0.0393,0.35172 -0.0694,0.61782 -0.12727,1.02741 0.10877,-0.23835 0.18743,-0.47901 0.23603,-0.72428 0.0139,-0.2661 0.0255,-0.48362 0.0347,-0.75667 z m -12.36814,4.2253 c -0.18512,-0.32627 -0.21982,-0.38643 -0.37486,-0.66641 -0.22445,-0.40727 -0.32627,-0.5947 -0.59469,-1.10377 v -0.002 c -0.44891,-0.11804 -0.88393,-0.25683 -1.29582,-0.41419 0.3309,0.72428 0.51833,1.11996 0.88162,1.85118 0.33784,0.0996 0.68725,0.18973 1.04129,0.2661 0.11569,0.0255 0.23139,0.0485 0.34246,0.0693 z m 3.49178,-2.4528 c 0.21982,-0.32396 0.25916,-0.38411 0.41188,-0.6132 -0.12726,0.007 -0.25454,0.0118 -0.38412,0.0168 -0.1828,0.007 -0.36792,0.008 -0.55072,0.008 -0.21983,0 -0.43965,-0.005 -0.65948,-0.0117 -0.17818,0.24759 -0.50213,0.6965 -1.06905,1.47631 0.51601,0.0556 1.04591,0.0856 1.57349,0.0902 0.30776,-0.43273 0.40726,-0.57388 0.678,-0.96724 z m 7.12006,-7.15015 c -0.002,0.005 -0.007,0.0118 -0.009,0.0168 -0.16892,0.26611 -0.37949,0.52296 -0.63171,0.76592 -0.83534,0.81452 -2.05249,1.44624 -3.47095,1.84192 -0.007,0 -0.0139,0.002 -0.0208,0.005 -0.10876,0.0301 -0.21519,0.0579 -0.32626,0.0856 l -0.0301,0.007 c -1.13385,0.27537 -2.40884,0.41188 -3.76251,0.35172 -0.0324,0 -0.0648,-0.002 -0.0949,-0.002 -1.88585,-0.0949 -3.58662,-0.55997 -4.88475,-1.27036 -1.38839,-0.73111 -2.42273,-1.77702 -2.5338,-3.15614 -0.0741,-0.84229 0.24759,-1.61746 0.78212,-2.26307 0.009,-0.0134 0.0208,-0.0277 0.0324,-0.0416 0.0208,-0.0232 0.0417,-0.0485 0.0625,-0.0717 l -0.12264,0.088 c -0.79369,0.57156 -2.02935,1.71927 -2.02935,3.3136 0,0.18049 0.0161,0.36792 0.0509,0.55999 0.47436,2.61477 4.29934,4.67882 8.89719,4.80377 3.49871,0.0949 6.77991,-0.92094 8.55935,-2.6541 0.83996,-0.81683 1.28425,-1.75168 1.28656,-2.70041 -0.002,-1.43929 -0.97186,-2.55924 -2.15198,-3.41077 0.96954,1.09912 1.20788,2.44817 0.398,3.73242 z m -14.27947,-0.32164 v -0.002 c 0,-1.03202 0.70113,-1.99926 1.97381,-2.72354 1.25417,-0.715 2.91097,-1.10838 4.66264,-1.10838 1.7563,0 3.4131,0.39338 4.66726,1.1107 1.27037,0.72428 1.96918,1.69151 1.96918,2.72122 v 0.002 c 0,0.65949 -0.27998,1.21021 -0.64559,1.64987 0.0255,-0.0185 0.0532,-0.0348 0.081,-0.0532 l 0.12494,-0.0902 c 0.9279,-0.66875 1.70308,-1.6406 1.70308,-2.78833 0,-1.37219 -1.06674,-2.4528 -2.25611,-3.14699 -1.54573,-0.86079 -3.61672,-1.30277 -5.32906,-1.35136 -0.10412,-0.002 -0.20826,-0.005 -0.3147,-0.005 -3.94762,0 -7.22651,1.65912 -7.80731,3.81805 -0.0602,0.22445 -0.0926,0.45352 -0.0926,0.68493 0,0.0809 0.005,0.15969 0.0116,0.23603 0.0417,0.45816 0.20363,0.8978 0.46742,1.30968 l 0.002,0.002 c 0.0161,0.0255 0.037,0.0532 0.0555,0.0786 0.29387,0.42347 0.6803,0.78444 1.07599,1.09682 0.0972,0.0741 0.20131,0.1434 0.30545,0.2152 -0.42577,-0.51377 -0.65485,-1.08069 -0.65485,-1.65686 z m 6.63645,11.50966 c -3.90366,0 -6.82388,-1.46938 -7.40468,-2.05249 1.10144,0.79368 3.04748,2.53611 7.40468,2.53611 4.32942,0 6.27778,-1.72159 7.40468,-2.53381 -2.02472,1.45781 -4.90792,2.05019 -7.40468,2.05019 z m 5.75945,-1.12459 c 0.0578,-0.0277 0.12033,-0.0509 0.17818,-0.0786 -0.0579,0.0277 -0.12033,0.0509 -0.17818,0.0786 z m -0.45122,0.18743 c 0.0717,-0.0277 0.14347,-0.0556 0.2152,-0.0856 -0.0717,0.0301 -0.14347,0.0579 -0.2152,0.0856 z m 0.91864,-0.40725 c 0.0347,-0.0185 0.0717,-0.0348 0.10876,-0.0532 -0.037,0.0185 -0.0741,0.0348 -0.10876,0.0532 z m -1.13615,0.49055 c -0.10645,0.0393 -0.2152,0.0764 -0.32627,0.11334 0.11108,-0.0371 0.21982,-0.074 0.32627,-0.11334 z m 2.31396,-1.19633 c -0.36329,0.25917 -0.72427,0.52065 -1.08756,0.78213 l 1.08756,-0.78213 c -0.0578,0.0393 -0.12033,0.0809 -0.18049,0.12258 0.0602,-0.0416 0.12265,-0.0833 0.18049,-0.12258 z m -0.53221,0.34711 c 0.0648,-0.0393 0.1319,-0.0788 0.19668,-0.1204 -0.0648,0.0417 -0.13189,0.0809 -0.19668,0.1204 z m -0.3147,0.18281 c 0.0509,-0.0277 0.10412,-0.0556 0.15272,-0.0833 -0.0486,0.0277 -0.10181,0.0556 -0.15272,0.0833 z m -13.91618,-0.49751 1.04129,0.74972 c -0.3471,-0.24991 -0.69419,-0.49981 -1.04129,-0.74972 z m 11.6994,1.41152 c 0.0995,-0.0301 0.20132,-0.0601 0.30082,-0.0925 -0.0995,0.0324 -0.20132,0.0625 -0.30082,0.0925 z m -9.96392,-0.46049 c -0.10645,-0.044 -0.21289,-0.0902 -0.3147,-0.13651 0.1018,0.0463 0.20825,0.0925 0.3147,0.13651 z m 1.35598,0.48131 c -0.12495,-0.0348 -0.25222,-0.0717 -0.37486,-0.11335 0.12264,0.0416 0.24991,0.0786 0.37486,0.11335 z m -2.06637,-0.8122 c 0.0879,0.0464 0.18049,0.0902 0.27305,0.13416 -0.0926,-0.044 -0.18512,-0.088 -0.27305,-0.13416 z m 1.55961,0.65486 c -0.10644,-0.0371 -0.21288,-0.0717 -0.31701,-0.111 0.10412,0.0393 0.21057,0.074 0.31701,0.111 z m -0.74741,-0.28 c 0.0949,0.0416 0.19437,0.0788 0.29387,0.11569 -0.0995,-0.0371 -0.199,-0.0741 -0.29387,-0.11569 z m 9.46643,0.52759 c 0.0763,-0.0208 0.15503,-0.0393 0.23139,-0.0625 -0.0763,0.0232 -0.15504,0.0416 -0.23139,0.0625 z m -10.7715,-1.18012 c -0.0833,-0.0485 -0.16429,-0.0972 -0.24297,-0.1481 0.0787,0.0509 0.15966,0.0996 0.24297,0.1481 z m -0.57849,-0.37718 c 0.0787,0.0578 0.16197,0.11335 0.24528,0.16891 -0.0833,-0.0556 -0.16661,-0.11099 -0.24528,-0.16891 z m 0.93021,0.57849 c -0.0787,-0.044 -0.15966,-0.0856 -0.23602,-0.12963 0.0763,0.044 0.15735,0.0856 0.23602,0.12963 z m 2.77907,1.04359 c 0.42577,0.10411 0.87005,0.18975 1.3259,0.25685 -0.45585,-0.0672 -0.90013,-0.15264 -1.3259,-0.25685 z m 4.4914,0.40957 c 0.10413,-0.005 0.20826,-0.0101 0.31239,-0.0168 -0.10413,0.007 -0.20826,0.0118 -0.31239,0.0168 z m 2.09183,-0.23832 c 0.10644,-0.0208 0.21056,-0.0393 0.31469,-0.0601 -0.10412,0.0208 -0.20825,0.0393 -0.31469,0.0601 z m -0.46049,0.0764 c 0.0879,-0.0134 0.18049,-0.0255 0.26843,-0.0417 -0.0879,0.0168 -0.18049,0.0277 -0.26843,0.0417 z m -0.7798,0.10176 c -0.17586,0.0168 -0.35172,0.0324 -0.53221,0.044 0.18049,-0.0118 0.35635,-0.0277 0.53221,-0.044 z m 0.5299,-0.0625 c -0.16892,0.0232 -0.34016,0.0416 -0.51139,0.0601 0.17123,-0.0185 0.34247,-0.0371 0.51139,-0.0601 z m -6.35415,-0.4142 c 0.1157,0.0324 0.2314,0.0625 0.3471,0.0925 -0.1157,-0.0301 -0.2314,-0.0601 -0.3471,-0.0925 z m 7.62451,0.18279 c 0.0833,-0.0185 0.16661,-0.0348 0.2476,-0.0556 -0.081,0.0208 -0.1643,0.0371 -0.2476,0.0556 z m -5.62524,0.23141 c 0.0463,0.005 0.0902,0.0101 0.13651,0.0168 -0.0463,-0.007 -0.0902,-0.0117 -0.13651,-0.0168 z m 2.17744,0.1434 c -0.5623,0 -1.11302,-0.0277 -1.64754,-0.0809 0.53452,0.0532 1.08524,0.0809 1.64754,0.0809 z m 4.18133,-8.97125 c 0.50445,-0.18047 0.97186,-0.39336 1.39069,-0.6317 0.38412,-0.35867 0.73584,-0.82608 0.87468,-1.39301 v -0.51371 c 0,-2.01082 -2.89245,-3.64449 -6.4467,-3.64449 -3.55656,0 -6.4467,1.63367 -6.4467,3.64449 v 0.50214 c 0.12033,0.49519 0.41651,0.97417 0.87236,1.40458 0.41883,0.23834 0.88856,0.44891 1.39301,0.62939 1.3259,-0.60857 2.90865,-0.85153 4.18133,-0.85153 1.69151,0 3.11459,0.36329 4.18133,0.85384 z m -7.7888,0.18513 c -0.0764,-0.0232 -0.15041,-0.044 -0.22446,-0.0672 1.23335,-0.51371 2.66569,-0.71964 3.83193,-0.71964 1.52953,0 2.83229,0.30081 3.83655,0.71733 -0.0764,0.0232 -0.15272,0.0463 -0.22908,0.0693 -1.10145,-0.32165 -2.33248,-0.49287 -3.60747,-0.49287 -1.275,0 -2.50371,0.17122 -3.60747,0.49287 z m 0,0"
       id="path62723"
       inkscape:connector-curvature="0" />
  </g>
</svg>
